<svg width="25" height="25" viewBox="0 0 25 25" fill="none" xmlns="http://www.w3.org/2000/svg">
                                    <path d="M12.6094 0.390625C19.2988 0.390625 24.7188 5.81055 24.7188 12.5C24.7188 19.1895 19.2988 24.6094 12.6094 24.6094C5.91992 24.6094 0.5 19.1895 0.5 12.5C0.5 5.81055 5.91992 0.390625 12.6094 0.390625ZM12.6094 22.2656C17.9805 22.2656 22.375 17.9199 22.375 12.5C22.375 7.12891 17.9805 2.73438 12.6094 2.73438C7.18945 2.73438 2.84375 7.12891 2.84375 12.5C2.84375 17.9199 7.18945 22.2656 12.6094 22.2656ZM15.5879 17.1875L11.4375 14.1602C11.291 14.0625 11.2422 13.8672 11.2422 13.7207V5.66406C11.2422 5.37109 11.4863 5.07812 11.8281 5.07812H13.3906C13.6836 5.07812 13.9766 5.37109 13.9766 5.66406V12.5977L17.1992 14.9902C17.4922 15.1855 17.541 15.5273 17.3457 15.8203L16.418 17.041C16.2227 17.334 15.8809 17.3828 15.5879 17.1875Z" fill="white"/>
                                </svg>