<svg width="50" height="50" viewBox="0 0 50 50" fill="none" xmlns="http://www.w3.org/2000/svg">
<g id="Icon" clip-path="url(#clip0_308_2864)">
<g id="Clip path group">
<mask id="mask0_308_2864" style="mask-type:luminance" maskUnits="userSpaceOnUse" x="0" y="0" width="50" height="50">
<g id="clip0_610_8028">
<path id="Vector" d="M50 0H0V50H50V0Z" fill="white"/>
</g>
</mask>
<g mask="url(#mask0_308_2864)">
<g id="Group">
<path id="Vector_2" d="M49.1383 21.6667H45.0384V16.6667H49.1383C49.4366 16.6671 49.7121 16.5087 49.8614 16.2508C50.0108 15.9928 50.0108 15.6747 49.8618 15.4167C48.6013 13.2389 46.3308 11.8404 43.8185 11.6952L42.2052 8.8965C41.7836 8.16081 40.875 7.86132 40.0986 8.2015L35.8111 10.0566L37.6633 5.78735C38.0141 5.00977 37.7187 4.09342 36.9802 3.66658L33.9251 1.90918C33.1923 1.48967 32.2617 1.68417 31.7584 2.36247L28.9666 6.13322L28.4494 1.47746C28.3502 0.635172 27.6365 0.000407097 26.7885 1.96016e-07H23.1887C22.3411 -0.000406705 21.6273 0.632732 21.5268 1.4742L21.0317 6.1084L21.0117 6.08317L18.2517 2.36897C17.7589 1.67725 16.8198 1.47461 16.0849 1.90186L13.0633 3.64421C12.3223 4.06087 12.0176 4.97111 12.3578 5.74992L14.2051 10.0041L9.95502 8.15267C9.18352 7.81413 8.28101 8.11035 7.86027 8.83992L6.21029 11.7C3.71639 11.8599 1.46745 13.2544 0.215006 15.4167C0.066081 15.6747 0.0664878 15.9928 0.215414 16.2508C0.364746 16.5087 0.640626 16.6671 0.938474 16.6667H5.03842V21.6667H0.938474C0.640626 21.6663 0.364746 21.8246 0.215414 22.0825C0.0664878 22.3405 0.066081 22.6587 0.215006 22.9167C2.04402 26.0998 5.91366 27.4842 9.34668 26.1833C9.2576 26.6138 9.20993 27.052 9.2051 27.4918C9.2051 27.5598 9.2136 27.6273 9.23027 27.6932L10.9035 34.3933C11.7518 36.8482 13.1687 39.0674 15.0384 40.8699V45.8333C15.0413 48.1336 16.9053 49.9972 19.2051 50H30.8718C33.1719 49.9972 35.0356 48.1336 35.0384 45.8333V41.1402C37.3626 39.1915 39.0659 36.6057 39.9383 33.7007C39.9501 33.6633 39.9595 33.6247 39.966 33.586L41.1761 26.3334C41.8869 26.5543 42.6271 26.6667 43.3718 26.6667C46.0496 26.6647 48.5231 25.2356 49.8618 22.9167C50.0108 22.6587 50.0108 22.3405 49.8614 22.0825C49.7121 21.8246 49.4366 21.6663 49.1383 21.6667ZM13.5386 11.5307C14.1677 11.8067 14.9017 11.6683 15.3871 11.1824C15.8726 10.6962 16.0101 9.96217 15.7334 9.3335L13.8812 5.09602L16.9028 3.34595L19.6478 7.04508C19.6938 7.12199 19.7499 7.19238 19.8142 7.25504C19.8366 7.27742 19.8602 7.29817 19.885 7.3173C20.3261 7.73152 20.9576 7.87232 21.5325 7.68514C22.1568 7.48617 22.6019 6.93523 22.6653 6.28337L23.1887 1.66667H26.7934L27.3102 6.31673C27.3826 7.00073 27.8676 7.57039 28.5321 7.75024C29.1961 7.93009 29.9025 7.68351 30.3103 7.12932L33.0967 3.3549L36.1411 5.10987L34.2812 9.39658C34.0061 10.0257 34.1448 10.7588 34.6307 11.2435C35.1165 11.7285 35.8502 11.8661 36.4784 11.5902L40.7586 9.72408L41.9594 11.8074C40.7257 12.0447 39.5717 12.5891 38.6045 13.3907C38.1341 12.828 37.4387 12.5017 36.7051 12.5H35.0384C34.4215 12.502 33.8275 12.734 33.3718 13.1498C32.9856 12.8023 32.4994 12.5847 31.9826 12.5285C29.4671 10.4199 26.1305 9.56708 22.9115 10.2096C19.6925 10.8521 16.9394 12.9207 15.4262 15.8333H13.4202C12.3768 13.7178 10.3916 12.2233 8.07023 11.805L9.28852 9.68183L13.5386 11.5307ZM34.2051 15C34.2051 14.5398 34.5782 14.1667 35.0384 14.1667H36.7051C37.1653 14.1667 37.5384 14.5398 37.5384 15V23.3333C37.5384 23.7935 37.1653 24.1667 36.7051 24.1667H35.0384C34.5782 24.1667 34.2051 23.7935 34.2051 23.3333V15ZM28.3718 13.1498C27.9164 12.734 27.3223 12.502 26.7051 12.5H25.0384C24.4215 12.502 23.8275 12.734 23.3718 13.1498C22.9164 12.734 22.3223 12.502 21.7051 12.5H21.2278C23.7652 11.3354 26.6957 11.3941 29.1843 12.6599C28.8844 12.7697 28.6086 12.9358 28.3718 13.1498ZM17.5384 15.8333H17.35C17.4103 15.7417 17.4753 15.6543 17.5384 15.5652V15.8333ZM19.2051 15C19.2051 14.5398 19.5782 14.1667 20.0384 14.1667H21.7051C22.1653 14.1667 22.5384 14.5398 22.5384 15V20.8333H19.2051V15ZM24.2051 15C24.2051 14.5398 24.5782 14.1667 25.0384 14.1667H26.7051C27.1653 14.1667 27.5384 14.5398 27.5384 15V20.9782C27.2707 20.8846 26.9891 20.8353 26.7051 20.8333H24.2051V15ZM29.2051 15C29.2051 14.5398 29.5782 14.1667 30.0384 14.1667H31.7051C32.1653 14.1667 32.5384 14.5398 32.5384 15V23.3333C32.5384 23.7935 32.1653 24.1667 31.7051 24.1667H30.0384C29.5782 24.1667 29.2051 23.7935 29.2051 23.3333V15ZM2.6259 23.3333H5.87175C6.33195 23.3333 6.70508 22.9602 6.70508 22.5V15.8333C6.70508 15.3732 6.33195 15 5.87175 15H2.6259C4.01424 13.6381 5.99097 13.0587 7.89486 13.4562C9.79877 13.8533 11.3792 15.1746 12.1067 16.9783C12.234 17.2937 12.54 17.5 12.8802 17.5H17.5384V20.8333H12.8802C12.5425 20.8333 12.2381 21.0368 12.1091 21.3493C11.9688 21.6992 11.7933 22.0345 11.585 22.349C11.1289 22.738 10.7265 23.1864 10.3892 23.6824C8.09302 25.5684 4.74382 25.4179 2.6259 23.3333ZM38.3318 33.2499C37.4933 35.9611 35.8644 38.3606 33.6533 40.14C33.4743 40.2982 33.3718 40.5257 33.3718 40.765V45.8333C33.3718 47.2139 32.2523 48.3333 30.8718 48.3333H19.2051C17.8244 48.3333 16.7051 47.2139 16.7051 45.8333V40.5217C16.7059 40.297 16.6156 40.0814 16.4553 39.9243C15.5226 39.0193 13.2708 36.6243 12.5168 33.9648L10.8718 27.3926C10.8803 26.9332 10.9498 26.4771 11.0784 26.036C11.6217 24.1785 13.1878 22.8011 15.0994 22.5H26.7051C26.9289 22.4911 27.1458 22.5761 27.304 22.7343C27.4623 22.8927 27.5473 23.1099 27.5384 23.3333C27.5356 25.6336 25.6719 27.4972 23.3718 27.5H17.5384V29.1667H20.1951L20.4551 29.3257C22.1803 30.3776 23.6692 31.2858 24.2303 33.536C24.5323 34.7762 24.5323 36.0706 24.2303 37.3107L25.8534 37.6893C26.2184 36.1918 26.2184 34.6289 25.8534 33.1315C25.4665 31.5405 24.5314 30.1367 23.2118 29.1667H23.3718C25.7598 29.163 27.9042 27.7027 28.7819 25.4818C29.1599 25.708 29.5913 25.8293 30.0319 25.8325H31.7051C32.3223 25.8305 32.9164 25.5986 33.3718 25.1827C33.8271 25.599 34.4215 25.8309 35.0384 25.8333H36.7051C37.8379 25.8288 38.8258 25.0639 39.1135 23.9685C39.3328 24.2721 39.5367 24.587 39.7234 24.9117L38.3318 33.2499ZM43.3718 25C42.7048 25.0017 42.0424 24.8865 41.4153 24.6598C41.404 24.5512 41.3723 24.4458 41.3209 24.3493C40.8128 23.3158 40.0917 22.4015 39.2051 21.6667V15.1001C40.2826 13.9868 41.76 13.3496 43.3095 13.3309C44.8586 13.3122 46.3511 13.9132 47.455 15H44.2051C43.7449 15 43.3718 15.3732 43.3718 15.8333V22.5C43.3718 22.9602 43.7449 23.3333 44.2051 23.3333H47.455C46.3645 24.4018 44.8984 25.0004 43.3718 25Z" fill="white"/>
<path id="Vector_3" d="M27.5391 45V46.6667C29.8392 46.6638 31.7029 44.8002 31.7057 42.5H30.0391C30.0391 43.8806 28.9196 45 27.5391 45Z" fill="white"/>
</g>
</g>
</g>
</g>
<defs>
<clipPath id="clip0_308_2864">
<rect width="50" height="50" fill="white"/>
</clipPath>
</defs>
</svg>
