<svg width="26" height="25" viewBox="0 0 26 25" fill="none" xmlns="http://www.w3.org/2000/svg">
                                    <path d="M24.6211 8.05664C25.1582 8.49609 25.5 9.13086 25.5 9.86328V22.6562C25.5 23.9746 24.4258 25 23.1562 25H2.84375C1.52539 25 0.5 23.9746 0.5 22.6562V9.86328C0.5 9.13086 0.792969 8.49609 1.33008 8.05664C1.52539 7.91016 6.75 3.71094 7.92188 2.73438C9.04492 1.85547 10.8516 0 13 0C15.0996 0 16.9551 1.9043 18.0293 2.73438C19.1523 3.66211 24.377 7.86133 24.6211 8.05664ZM23.1562 22.3633V10.0098C23.1562 9.91211 23.1074 9.81445 23.0098 9.76562C22.2285 9.13086 17.6875 5.51758 16.5645 4.58984C15.6855 3.90625 14.123 2.34375 13 2.34375C11.8281 2.34375 10.2656 3.85742 9.38672 4.58984C8.26367 5.51758 3.72266 9.13086 2.94141 9.76562C2.84375 9.81445 2.84375 9.91211 2.84375 10.0098V22.3633C2.84375 22.5586 2.94141 22.6562 3.13672 22.6562H22.8633C23.0098 22.6562 23.1562 22.5586 23.1562 22.3633ZM21.5938 13.2324C21.7891 13.4766 21.7402 13.8672 21.4961 14.0625C20.0801 15.1855 18.5664 16.3574 18.0293 16.8457C16.9062 17.7246 15.0996 19.5312 13 19.5312C10.8516 19.5312 8.99609 17.6758 7.92188 16.8457C7.38477 16.4062 5.87109 15.1855 4.45508 14.0625C4.21094 13.8672 4.16211 13.4766 4.35742 13.2324L5.13867 12.3047C5.33398 12.0605 5.67578 12.0117 5.96875 12.2559C7.33594 13.3789 8.80078 14.5508 9.38672 14.9902C10.2656 15.6738 11.8281 17.1875 13 17.1875C14.123 17.1875 15.6855 15.7227 16.5645 14.9902C17.1504 14.5508 18.6152 13.3789 19.9824 12.2559C20.2754 12.0117 20.6172 12.0605 20.8125 12.3047L21.5938 13.2324Z" fill="white"/>
                                </svg>