<svg width="28" height="28" viewBox="0 0 24 25" fill="none" xmlns="http://www.w3.org/2000/svg">
                <path d="M2.94238 19.3163V17.6701C2.94238 17.1585 3.06802 16.7477 3.31931 16.4374C3.57059 16.1271 3.88854 15.8726 4.27316 15.6739C5.12316 15.2406 5.9597 14.906 6.78278 14.6701C7.60585 14.4342 8.65905 14.3162 9.94238 14.3162C10.4424 14.3162 10.885 14.3316 11.2703 14.3624C11.6555 14.3932 11.9962 14.4393 12.2924 14.5008L11.3885 15.4047C11.2052 15.3714 10.9876 15.3483 10.7357 15.3355C10.4837 15.3226 10.2193 15.3162 9.94238 15.3162C8.75905 15.3162 7.74783 15.4387 6.90873 15.6836C6.06963 15.9284 5.35008 16.2175 4.75008 16.5508C4.44623 16.7111 4.23566 16.8791 4.11836 17.0547C4.00104 17.2303 3.94238 17.4355 3.94238 17.6701V18.3162H9.80778L10.8078 19.3163H2.94238ZM15.3001 20.4085L12.5424 17.6509L13.2501 16.9431L15.3001 18.9932L20.3501 13.9431L21.0578 14.6509L15.3001 20.4085ZM9.94238 12.0855C9.11738 12.0855 8.41113 11.7917 7.82363 11.2042C7.23613 10.6167 6.94238 9.91048 6.94238 9.08548C6.94238 8.26046 7.23613 7.5542 7.82363 6.9667C8.41113 6.3792 9.11738 6.08545 9.94238 6.08545C10.7674 6.08545 11.4736 6.3792 12.0612 6.9667C12.6487 7.5542 12.9424 8.26046 12.9424 9.08548C12.9424 9.91048 12.6487 10.6167 12.0612 11.2042C11.4736 11.7917 10.7674 12.0855 9.94238 12.0855ZM9.94238 11.0855C10.4924 11.0855 10.9632 10.8896 11.3549 10.498C11.7466 10.1063 11.9424 9.63548 11.9424 9.08548C11.9424 8.53548 11.7466 8.06464 11.3549 7.67298C10.9632 7.28131 10.4924 7.08548 9.94238 7.08548C9.39238 7.08548 8.92155 7.28131 8.52988 7.67298C8.13822 8.06464 7.94238 8.53548 7.94238 9.08548C7.94238 9.63548 8.13822 10.1063 8.52988 10.498C8.92155 10.8896 9.39238 11.0855 9.94238 11.0855Z" fill="white"/>
              </svg>