<svg width="50" height="50" viewBox="0 0 50 50" fill="none" xmlns="http://www.w3.org/2000/svg">
<g id="Icon" clip-path="url(#clip0_308_2900)">
<path id="Vector" fill-rule="evenodd" clip-rule="evenodd" d="M17.895 34.0577C17.794 33.285 17.5498 32.5279 17.1638 31.8268L15.5434 28.8885C15.3329 28.5067 14.8522 28.3678 14.4705 28.5783C14.0895 28.7888 13.9505 29.2695 14.1603 29.6506L15.7814 32.5895C16.0705 33.1144 16.2537 33.6821 16.3295 34.2618C16.3856 34.6934 16.7821 34.9986 17.2137 34.9425C17.646 34.8864 17.9512 34.49 17.895 34.0577ZM15.8467 25.4352C16.8593 27.2688 17.9765 29.2913 18.8614 30.892C19.2508 31.598 19.7673 32.2134 20.3751 32.7138C20.7119 32.9903 21.2094 32.9419 21.4866 32.605C21.7631 32.2688 21.7147 31.7706 21.3778 31.4941C20.9231 31.1193 20.5357 30.6582 20.2438 30.1284L20.2431 30.127C19.3582 28.5278 18.241 26.5053 17.229 24.6723C17.0185 24.2906 16.5379 24.1523 16.1568 24.3628C15.7751 24.5734 15.6361 25.0542 15.8467 25.4352Z" fill="white"/>
<path id="Vector_2" fill-rule="evenodd" clip-rule="evenodd" d="M0.299267 17.0016C1.82488 19.7679 5.18489 25.8612 6.71051 28.6276C7.01854 29.1869 7.53651 29.6002 8.14911 29.7771C8.76244 29.9546 9.42069 29.8809 9.97928 29.5728C12.5976 28.1293 18.166 25.0585 20.7835 23.6142C21.3429 23.3061 21.7561 22.7889 21.9337 22.1756C22.1106 21.5622 22.0368 20.904 21.7288 20.3454C20.2032 17.5791 16.8432 11.4858 15.3176 8.71945C15.0096 8.16085 14.4916 7.74682 13.879 7.56997C13.2656 7.39239 12.6074 7.46611 12.0488 7.77423C9.43051 9.21844 3.86212 12.2893 1.24391 13.7329C0.685233 14.0409 0.271858 14.5588 0.0943546 15.1714C-0.0824878 15.7847 -0.00884476 16.443 0.299267 17.0016ZM1.68173 16.2395C1.57572 16.0472 1.55046 15.8205 1.61155 15.61C1.67256 15.3995 1.81432 15.2213 2.0066 15.1152L12.8108 9.15734C13.0031 9.05134 13.2291 9.02608 13.4403 9.08651C13.6508 9.1476 13.829 9.29002 13.935 9.4823C15.4606 12.2486 18.8206 18.342 20.3462 21.1082C20.4521 21.2998 20.4774 21.5265 20.4164 21.737C20.3553 21.9483 20.2136 22.1258 20.0212 22.2317L9.21701 28.1903C9.02473 28.2963 8.79802 28.3215 8.5875 28.2605C8.37697 28.1994 8.19872 28.0569 8.0928 27.8654L1.68173 16.2395Z" fill="white"/>
<path id="Vector_3" fill-rule="evenodd" clip-rule="evenodd" d="M4.99393 19.0619L2.95678 20.1853C2.57576 20.3959 2.43682 20.8766 2.6466 21.2576C2.85713 21.6394 3.33787 21.7783 3.71954 21.5678L5.75604 20.445C6.13779 20.2344 6.27674 19.7538 6.06621 19.372C5.85569 18.9903 5.37503 18.8513 4.99393 19.0619ZM16.5925 12.6654L7.33854 17.7686C6.95744 17.9791 6.8185 18.4598 7.0291 18.8415C7.23889 19.2225 7.71963 19.3615 8.10139 19.1517L17.3555 14.0478C17.7372 13.838 17.8762 13.3572 17.6656 12.9755C17.455 12.5938 16.9743 12.4549 16.5925 12.6654Z" fill="white"/>
<path id="Vector_4" fill-rule="evenodd" clip-rule="evenodd" d="M11.152 19.1209C9.9218 19.7988 9.47408 21.3483 10.1527 22.5785C10.8306 23.808 12.3801 24.2564 13.6103 23.5778C14.8404 22.8993 15.2882 21.3504 14.6096 20.1203C13.9317 18.8901 12.3822 18.4424 11.152 19.1209ZM11.9148 20.5034C12.3816 20.2458 12.9696 20.4157 13.2271 20.8823C13.4846 21.3497 13.3148 21.9378 12.8474 22.1953C12.3807 22.4529 11.7927 22.2823 11.5352 21.8157C11.2777 21.349 11.4475 20.761 11.9148 20.5034Z" fill="white"/>
<path id="Vector_5" fill-rule="evenodd" clip-rule="evenodd" d="M14.7687 10.0248L1.48656 17.3497C1.1048 17.5595 0.965852 18.0402 1.17638 18.422C1.38691 18.8037 1.86765 18.9427 2.24932 18.7322L15.5307 11.4072C15.9125 11.1974 16.0514 10.7167 15.8409 10.3349C15.6305 9.95318 15.1498 9.81423 14.7687 10.0248Z" fill="white"/>
<path id="Vector_6" fill-rule="evenodd" clip-rule="evenodd" d="M33.2397 23.7152L29.6383 30.2457C28.5022 32.3054 28.4152 34.7826 29.4025 36.9166C29.4025 36.9174 29.4033 36.9188 29.4033 36.9194C30.3597 38.9657 30.3555 41.4247 29.1822 43.5524C27.2265 47.0983 22.7598 48.3897 19.2131 46.4345C15.6672 44.4786 14.376 40.012 16.3317 36.4653C17.505 34.337 19.5836 33.0211 21.8244 32.7313C24.1543 32.4282 26.2012 31.0338 27.3359 28.9763C28.3941 27.0626 29.731 24.6422 30.9423 22.4486C31.1528 22.0668 31.0138 21.5861 30.6321 21.3756C30.2511 21.1651 29.7703 21.304 29.5598 21.6851C28.3493 23.8788 27.0124 26.2985 25.9535 28.2129C25.0616 29.8304 23.4525 30.9273 21.6209 31.1659C18.8995 31.5181 16.3746 33.1174 14.9486 35.7034C12.5724 40.0122 14.1416 45.4402 18.4511 47.8171C22.7606 50.1933 28.1886 48.6241 30.5648 44.3146C31.9908 41.7293 31.9964 38.7413 30.8357 36.2536C30.0589 34.5756 30.1283 32.6276 31.0209 31.0087L34.6223 24.4775C34.8329 24.0964 34.6939 23.6157 34.3122 23.4052C33.931 23.1945 33.4502 23.3334 33.2397 23.7152Z" fill="white"/>
<path id="Vector_7" fill-rule="evenodd" clip-rule="evenodd" d="M49.701 12.0788C50.0091 11.5202 50.0827 10.8613 49.9059 10.2486C49.7284 9.63527 49.315 9.11804 48.7557 8.81001C45.6687 7.10681 38.3592 3.07601 35.2715 1.37347C34.7129 1.06544 34.0546 0.991711 33.4413 1.16855C32.828 1.34614 32.3107 1.75943 32.0027 2.31803C30.2097 5.56856 25.8168 13.5356 24.0238 16.7862C23.7156 17.3448 23.642 18.003 23.8195 18.6163C23.9963 19.2289 24.4104 19.7468 24.969 20.0549C28.0567 21.7581 35.3662 25.789 38.4532 27.4915C39.0125 27.7995 39.6708 27.8732 40.2834 27.6957C40.8967 27.5189 41.4146 27.1056 41.7226 26.5463L49.701 12.0788ZM48.3185 11.3159L40.3402 25.7841C40.2342 25.9756 40.056 26.1181 39.8455 26.1791C39.6343 26.2402 39.4082 26.2149 39.216 26.1089C36.1283 24.4057 28.8188 20.3749 25.7317 18.6725C25.5395 18.5666 25.397 18.3882 25.336 18.1778C25.2749 17.9673 25.3009 17.7406 25.4068 17.5484L33.3851 3.08096C33.4911 2.88868 33.6686 2.74693 33.8799 2.68591C34.0904 2.6249 34.3171 2.65017 34.5086 2.75609C37.5964 4.45855 44.9059 8.48943 47.9936 10.1926C48.1859 10.2986 48.3276 10.4761 48.3887 10.6874C48.4498 10.8977 48.4245 11.1244 48.3185 11.3159Z" fill="white"/>
<path id="Vector_8" fill-rule="evenodd" clip-rule="evenodd" d="M21.5012 36.4577C22.4802 36.1118 23.5967 36.1693 24.5771 36.7097C26.3974 37.7139 27.0606 40.0073 26.0564 41.8283C25.0522 43.6493 22.7588 44.3125 20.9377 43.3083C19.1167 42.3041 18.4535 40.0107 19.4578 38.1897C19.6683 37.808 19.5294 37.3272 19.1476 37.1168C18.7666 36.9069 18.2859 37.0459 18.0753 37.4269C16.65 40.0108 17.5911 43.2662 20.175 44.6909C22.7595 46.1161 26.0143 45.1751 27.4396 42.5912C28.8641 40.0073 27.923 36.7519 25.3392 35.3273C23.949 34.5603 22.3645 34.4782 20.9757 34.9687C20.5652 35.114 20.3491 35.5651 20.4943 35.9757C20.6388 36.3868 21.0907 36.6023 21.5012 36.4577Z" fill="white"/>
<path id="Vector_9" fill-rule="evenodd" clip-rule="evenodd" d="M34.4257 10.9042L45.945 17.2565C46.326 17.467 46.8067 17.328 47.0172 16.9463C47.2278 16.5645 47.0888 16.0838 46.7071 15.874L35.1877 9.52096C34.8067 9.31043 34.326 9.44938 34.1154 9.83114C33.905 10.2129 34.0439 10.6936 34.4257 10.9042ZM29.6285 8.25854L32.0362 9.58627C32.418 9.79679 32.898 9.65785 33.1085 9.27609C33.3191 8.89434 33.1801 8.41359 32.7984 8.20381L30.3913 6.87609C30.0096 6.66556 29.5288 6.80451 29.319 7.18626C29.1085 7.56727 29.2475 8.04802 29.6285 8.25854Z" fill="white"/>
<path id="Vector_10" fill-rule="evenodd" clip-rule="evenodd" d="M35.0052 15.9348C35.3189 15.8534 35.6621 15.8864 35.9681 16.0555C36.6018 16.405 36.8326 17.2029 36.4831 17.8366C36.1337 18.4702 35.3351 18.7012 34.7013 18.3517C34.3399 18.1524 34.1098 17.8071 34.0438 17.4296C33.968 17.0001 33.5581 16.7131 33.1287 16.7889C32.6999 16.8647 32.4129 17.2745 32.4887 17.704C32.6354 18.5349 33.1427 19.2949 33.9392 19.7341C35.3357 20.5047 37.0951 19.9959 37.8656 18.5987C38.6361 17.2022 38.1274 15.4429 36.7302 14.6724C36.0565 14.3012 35.2986 14.2268 34.6081 14.4065C34.1863 14.516 33.933 14.9475 34.0424 15.3693C34.1527 15.791 34.5835 16.0443 35.0052 15.9348Z" fill="white"/>
<path id="Vector_11" fill-rule="evenodd" clip-rule="evenodd" d="M31.3612 5.1167L47.677 14.1146C48.0588 14.3251 48.5394 14.1862 48.7501 13.8044C48.9606 13.4234 48.8216 12.9427 48.4399 12.7322L32.124 3.73424C31.7422 3.52371 31.2615 3.66266 31.051 4.04442C30.8412 4.42617 30.9795 4.90617 31.3612 5.1167Z" fill="white"/>
</g>
<defs>
<clipPath id="clip0_308_2900">
<rect width="50" height="50" fill="white"/>
</clipPath>
</defs>
</svg>
