<svg width="50" height="50" viewBox="0 0 50 50" fill="none" xmlns="http://www.w3.org/2000/svg">
<g id="Icon">
<path id="Vector" d="M25.7512 33.968H13.2207C13.0135 33.968 12.8148 33.8857 12.6683 33.7392C12.5218 33.5927 12.4395 33.3939 12.4395 33.1867V22.6766C12.4395 22.4694 12.5218 22.2707 12.6683 22.1242C12.8148 21.9777 13.0135 21.8953 13.2207 21.8953H25.7512C25.9584 21.8953 26.1571 21.9777 26.3036 22.1242C26.4501 22.2707 26.5325 22.4694 26.5325 22.6766V33.1867C26.5325 33.3939 26.4501 33.5927 26.3036 33.7392C26.1571 33.8857 25.9584 33.968 25.7512 33.968ZM14.002 32.4055H24.97V23.4578H14.002V32.4055Z" fill="white"/>
<path id="Vector_2" d="M31.6855 37.3829H30.123V22.6767C30.123 22.4694 30.2053 22.2708 30.3519 22.1243C30.4984 21.9778 30.697 21.8954 30.9043 21.8954H31.4511C32.7729 21.8894 34.0613 22.3099 35.125 23.0944C36.1887 23.8789 36.971 24.9856 37.3558 26.2501L35.862 26.7087C35.5865 25.8024 35.037 25.0037 34.2892 24.4224C33.5413 23.8409 32.6318 23.5054 31.6855 23.4619V37.3829Z" fill="white"/>
<path id="Vector_3" d="M24.6871 44.4147H2.4082C2.201 44.4147 2.00229 44.3325 1.85578 44.1859C1.70926 44.0394 1.62695 43.8407 1.62695 43.6335V28.0695C1.62943 26.4333 2.28048 24.8649 3.43739 23.708C4.5943 22.5511 6.1627 21.9001 7.79883 21.8976H8.06601C8.27321 21.8976 8.4719 21.9799 8.6184 22.1264C8.76499 22.2729 8.84724 22.4717 8.84724 22.6788V42.8522H24.6871V44.4147ZM3.19258 42.8522H7.28711V23.4867C6.16059 23.6142 5.12037 24.1518 4.36469 24.9969C3.60901 25.8421 3.19069 26.9357 3.18945 28.0695L3.19258 42.8522Z" fill="white"/>
<path id="Vector_4" d="M10.6445 36.5953C9.75358 36.5953 8.89908 36.2414 8.26909 35.6114C7.63909 34.9814 7.28516 34.1269 7.28516 33.2359V21.8008C7.28516 21.5935 7.36746 21.3949 7.51398 21.2484C7.66049 21.1019 7.85921 21.0195 8.06641 21.0195H13.2187C13.4259 21.0195 13.6247 21.1019 13.7712 21.2484C13.9177 21.3949 14 21.5935 14 21.8008V33.2374C13.9996 34.1275 13.646 34.9809 13.0169 35.6105C12.3877 36.2401 11.5346 36.5943 10.6445 36.5953ZM8.84766 22.582V33.2374C8.84766 33.714 9.037 34.1711 9.37391 34.508C9.71091 34.845 10.168 35.0344 10.6445 35.0344C11.1211 35.0344 11.5782 34.845 11.9151 34.508C12.2521 34.1711 12.4414 33.714 12.4414 33.2374V22.582H8.84766Z" fill="white"/>
<path id="Vector_5" d="M28.3282 36.5953C27.4372 36.5953 26.5827 36.2414 25.9527 35.6114C25.3227 34.9814 24.9688 34.1269 24.9688 33.2359V21.8008C24.9688 21.5935 25.0511 21.3949 25.1976 21.2484C25.3441 21.1019 25.5428 21.0195 25.75 21.0195H30.9062C31.1134 21.0195 31.3122 21.1019 31.4587 21.2484C31.6052 21.3949 31.6875 21.5935 31.6875 21.8008V33.2374C31.6871 34.1282 31.333 34.9823 30.703 35.6119C30.0731 36.2416 29.2188 36.5953 28.3282 36.5953ZM26.5313 22.582V33.2374C26.5313 33.714 26.7206 34.1711 27.0576 34.508C27.3945 34.845 27.8516 35.0344 28.3282 35.0344C28.8047 35.0344 29.2617 34.845 29.5987 34.508C29.9357 34.1711 30.125 33.714 30.125 33.2374V22.582H26.5313Z" fill="white"/>
<path id="Vector_6" d="M8.84961 43.6335H7.28711V33.2374C7.28711 33.0302 7.36942 32.8315 7.51593 32.685C7.66244 32.5385 7.86115 32.4561 8.06836 32.4561C8.27556 32.4561 8.47428 32.5385 8.62078 32.685C8.76728 32.8315 8.84961 33.0302 8.84961 33.2374C8.84961 33.714 9.03894 34.171 9.37586 34.508C9.71286 34.845 10.1699 35.0343 10.6464 35.0343C11.123 35.0343 11.5801 34.845 11.917 34.508C12.254 34.171 12.4434 33.714 12.4434 33.2374C12.4414 33.0248 12.5216 32.8196 12.6671 32.6647C12.8126 32.5097 13.0124 32.4168 13.2246 32.4054H25.7512C25.9584 32.4054 26.1571 32.4876 26.3036 32.6342C26.4501 32.7807 26.5324 32.9794 26.5324 33.1866C26.5291 33.4226 26.5723 33.6569 26.6594 33.8762C26.7467 34.0955 26.8763 34.2954 27.0408 34.4646C27.2053 34.6339 27.4014 34.769 27.6182 34.8624C27.8349 34.9558 28.0679 35.0056 28.3039 35.0089C28.5399 35.0122 28.7742 34.9691 28.9934 34.8818C29.2128 34.7946 29.4127 34.6651 29.5819 34.5006C29.7511 34.3361 29.8863 34.1398 29.9797 33.9231C30.073 33.7064 30.1229 33.4734 30.1262 33.2374C30.1262 33.0302 30.2084 32.8315 30.355 32.685C30.5015 32.5385 30.7002 32.4561 30.9074 32.4561C31.1146 32.4561 31.3134 32.5385 31.4599 32.685C31.6064 32.8315 31.6887 33.0302 31.6887 33.2374V37.3827H30.1262V36.0741C29.6708 36.3619 29.1529 36.5359 28.616 36.5815C28.0793 36.6271 27.5394 36.543 27.042 36.3361C26.5446 36.1293 26.1042 35.8059 25.7579 35.3932C25.4118 34.9805 25.1699 34.4906 25.0527 33.9647H13.9152C13.7995 34.4906 13.5589 34.9807 13.2134 35.3938C12.8681 35.8068 12.4283 36.1306 11.9313 36.3375C11.4343 36.5445 10.8947 36.6286 10.3582 36.5827C9.82178 36.5369 9.30428 36.3624 8.84961 36.0741V43.6335Z" fill="white"/>
<path id="Vector_7" d="M27.5469 30.4024H29.1094V32.7797H27.5469V30.4024Z" fill="white"/>
<path id="Vector_8" d="M9.86328 30.4024H11.4258V32.7797H9.86328V30.4024Z" fill="white"/>
<path id="Vector_9" d="M2.4082 38.6923H8.20976V40.2548H2.4082V38.6923Z" fill="white"/>
<path id="Vector_10" d="M2.16406 35.4531H8.3125V37.0156H2.16406V35.4531Z" fill="white"/>
<path id="Vector_11" d="M19.4864 23.3845C18.4701 23.3732 17.4664 23.1598 16.5335 22.7566C15.6006 22.3534 14.7573 21.7685 14.0528 21.0361C12.1846 19.0795 11.1666 16.4633 11.2208 13.7586V11.7188H12.7833V13.7649C12.7299 16.0556 13.5848 18.2742 15.1614 19.9368C15.7138 20.5319 16.3831 21.0066 17.1273 21.3313C17.8716 21.6559 18.6748 21.8235 19.4868 21.8235C20.2988 21.8235 21.102 21.6559 21.8463 21.3313C22.5906 21.0066 23.2598 20.5319 23.8122 19.9368C25.3811 18.2842 26.2356 16.0799 26.1903 13.8016C26.1903 13.7884 26.1903 13.7759 26.1903 13.7634V11.5165H27.7528V13.7298V13.7579C27.8084 16.4627 26.7907 19.0795 24.9223 21.0361C24.2176 21.7688 23.3739 22.3538 22.4406 22.7571C21.5073 23.1602 20.5031 23.3736 19.4864 23.3845Z" fill="white"/>
<path id="Vector_12" d="M19.4858 27.0946C18.7318 27.0957 17.987 26.9289 17.3056 26.606C16.6242 26.2832 16.0234 25.8125 15.5468 25.2282L13.864 23.1712C13.7704 23.0567 13.7111 22.918 13.6932 22.7712C13.6754 22.6244 13.6995 22.4756 13.7628 22.342C13.8261 22.2083 13.926 22.0955 14.051 22.0164C14.176 21.9373 14.3208 21.8953 14.4686 21.8953H24.5046C24.6525 21.8953 24.7972 21.9373 24.9222 22.0164C25.0471 22.0955 25.1471 22.2083 25.2105 22.342C25.2737 22.4756 25.2979 22.6244 25.28 22.7712C25.2621 22.918 25.2029 23.0567 25.1093 23.1712L23.4256 25.2282C22.949 25.8126 22.3481 26.2833 21.6665 26.6062C20.985 26.9291 20.24 27.0959 19.4858 27.0946ZM16.117 23.4578L16.7561 24.2391C17.0871 24.6432 17.5037 24.9688 17.9759 25.1924C18.448 25.416 18.9638 25.532 19.4862 25.532C20.0086 25.532 20.5245 25.416 20.9966 25.1924C21.4687 24.9688 21.8853 24.6432 22.2163 24.2391L22.8554 23.4578H16.117Z" fill="white"/>
<path id="Vector_13" d="M24.9293 14.543H14.0449C13.2961 14.5422 12.5782 14.2443 12.0488 13.7148C11.5193 13.1854 11.2215 12.4675 11.2207 11.7188V10.625C11.2207 10.4178 11.303 10.2191 11.4495 10.0726C11.596 9.92608 11.7947 9.84375 12.002 9.84375H26.9715C27.1786 9.84375 27.3774 9.92608 27.5239 10.0726C27.6704 10.2191 27.7527 10.4178 27.7527 10.625V11.7188C27.7519 12.4674 27.4541 13.1852 26.9249 13.7146C26.3955 14.244 25.6779 14.5419 24.9293 14.543ZM12.7832 11.4062V11.7188C12.7836 12.0532 12.9166 12.3739 13.1532 12.6105C13.3897 12.847 13.7104 12.9801 14.0449 12.9805H24.9293C25.2636 12.9798 25.5841 12.8467 25.8205 12.6102C26.0568 12.3737 26.1898 12.0531 26.1902 11.7188V11.4062H12.7832Z" fill="white"/>
<path id="Vector_14" d="M27.7527 11.1719H26.1902V7.3344C26.1888 5.98175 25.6508 4.68491 24.6945 3.72837C23.738 2.77183 22.4413 2.23371 21.0886 2.23206H17.8855C16.5328 2.23371 15.236 2.77181 14.2795 3.72832C13.323 4.68484 12.7848 5.98168 12.7832 7.3344V11.1719H11.2207V7.3344C11.2225 5.56734 11.9253 3.8732 13.1748 2.6237C14.4243 1.3742 16.1185 0.671416 17.8855 0.669556H21.0886C22.8555 0.671623 24.5495 1.3745 25.7989 2.62397C27.0481 3.87345 27.7509 5.56747 27.7527 7.3344V11.1719Z" fill="white"/>
<path id="Vector_15" d="M20.8598 9.25242H18.1254C17.4485 9.25159 16.7996 8.98234 16.3209 8.50375C15.8424 8.02509 15.573 7.37617 15.5723 6.69929V6.26101C15.573 5.58549 15.8413 4.93774 16.3182 4.45934C16.7951 3.98094 17.442 3.71078 18.1175 3.70789H20.8519C21.5288 3.70851 22.1779 3.97769 22.6566 4.45637C23.1353 4.93504 23.4044 5.58407 23.405 6.26101V6.69929C23.4044 7.37489 23.1363 8.02274 22.6593 8.50117C22.1824 8.97967 21.5353 9.24975 20.8598 9.25242ZM18.1254 5.26804C17.8628 5.26846 17.611 5.37296 17.4254 5.55864C17.2397 5.74434 17.1352 5.99607 17.1348 6.25867V6.69695C17.1345 6.95861 17.2377 7.20977 17.4218 7.39574C17.6058 7.58172 17.8559 7.68744 18.1175 7.68992H20.8519C21.1146 7.68971 21.3664 7.58528 21.5522 7.39954C21.7379 7.21381 21.8424 6.96196 21.8425 6.69929V6.26101C21.8424 5.99969 21.739 5.74902 21.5549 5.56351C21.3708 5.37799 21.121 5.27265 20.8598 5.27039L18.1254 5.26804Z" fill="white"/>
<path id="Vector_16" d="M37.9549 39.1923C37.7478 39.1922 37.549 39.1098 37.4026 38.9633L33.3596 34.9219C33.2131 34.7754 33.1309 34.5768 33.1309 34.3696C33.1309 34.1624 33.2131 33.9638 33.3596 33.8173L34.9151 32.2657C35.0616 32.1193 35.2603 32.0369 35.4674 32.0369C35.6746 32.0369 35.8733 32.1193 36.0198 32.2657L40.0596 36.3048C40.2061 36.4513 40.2884 36.6499 40.2884 36.8571C40.2884 37.0643 40.2061 37.2629 40.0596 37.4094L38.5073 38.9618C38.4349 39.0346 38.3488 39.0924 38.254 39.132C38.1593 39.1716 38.0576 39.192 37.9549 39.1923ZM35.0198 34.3751L37.9549 37.3103L38.4026 36.8626L35.469 33.9243L35.0198 34.3751Z" fill="white"/>
<path id="Vector_17" d="M26.9412 49.0156C26.2217 49.0161 25.5183 48.8031 24.92 48.4036C24.3217 48.0042 23.8552 47.4362 23.5797 46.7716C23.3043 46.107 23.2322 45.3756 23.3727 44.67C23.5131 43.9644 23.8597 43.3162 24.3686 42.8077L26.6342 40.5421C26.6506 40.5256 26.6686 40.5093 26.6866 40.4944L34.5818 32.6006C34.2377 31.3444 34.2342 30.0191 34.5721 28.7611C34.9098 27.5031 35.5766 26.3577 36.5037 25.4428C37.4309 24.5279 38.585 23.8765 39.8474 23.5555C41.1098 23.2344 42.4349 23.2554 43.6866 23.6163C43.8172 23.6537 43.9359 23.7246 44.0307 23.8221C44.1257 23.9194 44.1935 24.0398 44.2276 24.1715C44.2617 24.3031 44.2608 24.4413 44.2252 24.5725C44.1894 24.7036 44.1201 24.8232 44.0241 24.9194L40.2959 28.6468L41.0772 31.2483L43.6779 32.0296L47.4061 28.3031C47.5022 28.207 47.6217 28.1376 47.7529 28.1018C47.884 28.0661 48.0222 28.0651 48.1538 28.0992C48.2854 28.1332 48.4058 28.201 48.5032 28.2957C48.6007 28.3906 48.6717 28.5091 48.7092 28.6397C49.0701 29.8913 49.0911 31.2165 48.7701 32.4788C48.4491 33.7412 47.7976 34.8954 46.8827 35.8226C45.9677 36.7497 44.8224 37.4165 43.5644 37.7542C42.3064 38.092 40.9811 38.0886 39.7248 37.7444L30.2272 47.2436C30.2092 47.2621 30.1902 47.2793 30.1702 47.2952L29.5131 47.9522C29.1757 48.2902 28.7747 48.5582 28.3333 48.7407C27.892 48.9232 27.4188 49.0166 26.9412 49.0156ZM27.6873 41.6999L25.4732 43.9124C25.275 44.1039 25.1169 44.333 25.0081 44.5862C24.8993 44.8395 24.8421 45.1118 24.8397 45.3875C24.8372 45.6631 24.8898 45.9364 24.9942 46.1915C25.0986 46.4466 25.2527 46.6783 25.4476 46.8732C25.6425 47.0681 25.8742 47.2222 26.1293 47.3266C26.3844 47.431 26.6577 47.4836 26.9334 47.4811C27.209 47.4787 27.4814 47.4215 27.7347 47.3127C27.9879 47.2039 28.2169 47.0458 28.4084 46.8476L29.1202 46.1358C29.1389 46.1171 29.1577 46.1006 29.1772 46.0835L38.9545 36.3061C39.0581 36.2024 39.1887 36.1298 39.3316 36.0968C39.4745 36.0638 39.6237 36.0716 39.7623 36.1194C40.6467 36.4285 41.593 36.5175 42.5194 36.3787C43.4459 36.2401 44.3246 35.8778 45.0797 35.3234C45.8347 34.7689 46.4434 34.0389 46.8532 33.1965C47.2628 32.3541 47.4612 31.4245 47.4311 30.4881L44.4529 33.4647C44.3528 33.5653 44.2272 33.6367 44.0896 33.6712C43.9519 33.7058 43.8074 33.7022 43.6717 33.6608L40.2264 32.6233C40.1027 32.5861 39.9901 32.5189 39.8987 32.4276C39.8074 32.3362 39.7401 32.2236 39.7029 32.0999L38.6647 28.6491C38.6241 28.5139 38.6209 28.3702 38.6554 28.2334C38.6899 28.0965 38.7609 27.9716 38.8607 27.8718L41.8373 24.8952C41.0489 24.8716 40.264 25.0091 39.5305 25.2992C38.7971 25.5894 38.1306 26.0261 37.5717 26.5827C36.8014 27.3483 36.2642 28.3167 36.0224 29.3755C35.7807 30.4343 35.8443 31.54 36.2061 32.564C36.2539 32.7026 36.2617 32.8518 36.2287 32.9946C36.1957 33.1376 36.1232 33.2682 36.0193 33.3718L27.7381 41.6531C27.7232 41.6679 27.7053 41.6843 27.6873 41.6999Z" fill="white"/>
<path id="Vector_18" d="M27.3578 45.7461C27.851 45.7461 28.2508 45.3463 28.2508 44.8531C28.2508 44.36 27.851 43.9601 27.3578 43.9601C26.8647 43.9601 26.4648 44.36 26.4648 44.8531C26.4648 45.3463 26.8647 45.7461 27.3578 45.7461Z" fill="white"/>
</g>
</svg>
