<svg width="24" height="25" viewBox="0 0 24 25" fill="none" xmlns="http://www.w3.org/2000/svg">
<g id="Profile">
<path id="Vector" d="M12 12.3155C11.175 12.3155 10.4688 12.0217 9.88125 11.4342C9.29375 10.8467 9 10.1405 9 9.31546C9 8.49044 9.29375 7.78418 9.88125 7.19668C10.4688 6.60918 11.175 6.31543 12 6.31543C12.825 6.31543 13.5312 6.60918 14.1188 7.19668C14.7063 7.78418 15 8.49044 15 9.31546C15 10.1405 14.7063 10.8467 14.1188 11.4342C13.5312 12.0217 12.825 12.3155 12 12.3155ZM5 19.5462V17.9001C5 17.4872 5.12019 17.101 5.36058 16.7414C5.60096 16.3818 5.92436 16.1026 6.33078 15.9039C7.27436 15.4513 8.21858 15.1119 9.16345 14.8856C10.1083 14.6593 11.0539 14.5462 12 14.5462C12.9462 14.5462 13.8917 14.6593 14.8365 14.8856C15.7814 15.1119 16.7256 15.4513 17.6692 15.9039C18.0756 16.1026 18.399 16.3818 18.6394 16.7414C18.8798 17.101 19 17.4872 19 17.9001V19.5462H5ZM6 18.5462H18V17.9001C18 17.6783 17.9285 17.4699 17.7856 17.2751C17.6426 17.0802 17.4449 16.9154 17.1923 16.7808C16.3692 16.3821 15.5206 16.0767 14.6464 15.8645C13.7722 15.6523 12.8901 15.5462 12 15.5462C11.1099 15.5462 10.2278 15.6523 9.3536 15.8645C8.4794 16.0767 7.63077 16.3821 6.8077 16.7808C6.55513 16.9154 6.35737 17.0802 6.21442 17.2751C6.07147 17.4699 6 17.6783 6 17.9001V18.5462ZM12 11.3155C12.55 11.3155 13.0208 11.1196 13.4125 10.728C13.8042 10.3363 14 9.86546 14 9.31546C14 8.76546 13.8042 8.29462 13.4125 7.90296C13.0208 7.51129 12.55 7.31546 12 7.31546C11.45 7.31546 10.9792 7.51129 10.5875 7.90296C10.1958 8.29462 10 8.76546 10 9.31546C10 9.86546 10.1958 10.3363 10.5875 10.728C10.9792 11.1196 11.45 11.3155 12 11.3155Z" fill="white"/>
</g>
</svg>
