<svg width="56" height="56" viewBox="0 0 56 56" fill="none" xmlns="http://www.w3.org/2000/svg">
<g id="Search">
<rect x="0.5" y="0.5" width="55" height="55" rx="27.5" fill="#0A0A0A" fill-opacity="0.7"/>
<path id="Vector" d="M33.8333 36L28.5833 30.75C28.1667 31.0833 27.6875 31.3472 27.1458 31.5417C26.6042 31.7361 26.0278 31.8333 25.4167 31.8333C23.9028 31.8333 22.6215 31.309 21.5729 30.2604C20.5243 29.2118 20 27.9306 20 26.4167C20 24.9028 20.5243 23.6215 21.5729 22.5729C22.6215 21.5243 23.9028 21 25.4167 21C26.9306 21 28.2118 21.5243 29.2604 22.5729C30.309 23.6215 30.8333 24.9028 30.8333 26.4167C30.8333 27.0278 30.7361 27.6042 30.5417 28.1458C30.3472 28.6875 30.0833 29.1667 29.75 29.5833L35 34.8333L33.8333 36ZM25.4167 30.1667C26.4583 30.1667 27.3438 29.8021 28.0729 29.0729C28.8021 28.3438 29.1667 27.4583 29.1667 26.4167C29.1667 25.375 28.8021 24.4896 28.0729 23.7604C27.3438 23.0312 26.4583 22.6667 25.4167 22.6667C24.375 22.6667 23.4896 23.0312 22.7604 23.7604C22.0312 24.4896 21.6667 25.375 21.6667 26.4167C21.6667 27.4583 22.0312 28.3438 22.7604 29.0729C23.4896 29.8021 24.375 30.1667 25.4167 30.1667Z" fill="white"/>
<rect x="0.5" y="0.5" width="55" height="55" rx="27.5" stroke="#4B4B4B"/>
</g>
</svg>
