<svg width="28" height="28" viewBox="0 0 24 25" fill="none" xmlns="http://www.w3.org/2000/svg">
                <path d="M6.61537 21.7009C6.15512 21.7009 5.77083 21.5468 5.4625 21.2384C5.15417 20.9301 5 20.5458 5 20.0856V9.3163C5 8.85605 5.15417 8.47176 5.4625 8.16343C5.77083 7.85509 6.15512 7.70093 6.61537 7.70093H8.5V7.20093C8.5 6.22913 8.84038 5.40284 9.52115 4.72208C10.2019 4.04131 11.0282 3.70093 12 3.70093C12.9718 3.70093 13.7981 4.04131 14.4789 4.72208C15.1596 5.40284 15.5 6.22913 15.5 7.20093V7.70093H17.3846C17.8449 7.70093 18.2292 7.85509 18.5375 8.16343C18.8458 8.47176 19 8.85605 19 9.3163V20.0856C19 20.5458 18.8458 20.9301 18.5375 21.2384C18.2292 21.5468 17.8449 21.7009 17.3846 21.7009H6.61537ZM6.61537 20.7009H17.3846C17.5385 20.7009 17.6795 20.6368 17.8077 20.5086C17.9359 20.3804 18 20.2394 18 20.0856V9.3163C18 9.16247 17.9359 9.02144 17.8077 8.89323C17.6795 8.76503 17.5385 8.70093 17.3846 8.70093H15.5V11.2009C15.5 11.3432 15.4522 11.4621 15.3567 11.5577C15.2612 11.6532 15.1423 11.7009 15 11.7009C14.8577 11.7009 14.7388 11.6532 14.6433 11.5577C14.5478 11.4621 14.5 11.3432 14.5 11.2009V8.70093H9.5V11.2009C9.5 11.3432 9.45224 11.4621 9.35673 11.5577C9.26123 11.6532 9.14232 11.7009 9 11.7009C8.85768 11.7009 8.73877 11.6532 8.64327 11.5577C8.54776 11.4621 8.5 11.3432 8.5 11.2009V8.70093H6.61537C6.46154 8.70093 6.32052 8.76503 6.1923 8.89323C6.0641 9.02144 6 9.16247 6 9.3163V20.0856C6 20.2394 6.0641 20.3804 6.1923 20.5086C6.32052 20.6368 6.46154 20.7009 6.61537 20.7009ZM9.5 7.70093H14.5V7.20093C14.5 6.49708 14.2593 5.90445 13.7779 5.42305C13.2965 4.94164 12.7039 4.70093 12 4.70093C11.2962 4.70093 10.7035 4.94164 10.2221 5.42305C9.74071 5.90445 9.5 6.49708 9.5 7.20093V7.70093Z" fill="white"/>
              </svg>