<svg width="24" height="25" viewBox="0 0 24 25" fill="none" xmlns="http://www.w3.org/2000/svg">
                <path d="M12 12.0855C11.175 12.0855 10.4688 11.7917 9.88125 11.2042C9.29375 10.6167 9 9.91048 9 9.08548C9 8.26046 9.29375 7.5542 9.88125 6.9667C10.4688 6.3792 11.175 6.08545 12 6.08545C12.825 6.08545 13.5312 6.3792 14.1188 6.9667C14.7063 7.5542 15 8.26046 15 9.08548C15 9.91048 14.7063 10.6167 14.1188 11.2042C13.5312 11.7917 12.825 12.0855 12 12.0855ZM5 19.3163V17.6701C5 17.2573 5.12019 16.871 5.36058 16.5114C5.60096 16.1518 5.92436 15.8726 6.33078 15.6739C7.27436 15.2214 8.21858 14.8819 9.16345 14.6557C10.1083 14.4294 11.0539 14.3162 12 14.3162C12.9462 14.3162 13.8917 14.4294 14.8365 14.6557C15.7814 14.8819 16.7256 15.2214 17.6692 15.6739C18.0756 15.8726 18.399 16.1518 18.6394 16.5114C18.8798 16.871 19 17.2573 19 17.6701V19.3163H5ZM6 18.3162H18V17.6701C18 17.4483 17.9285 17.24 17.7856 17.0451C17.6426 16.8502 17.4449 16.6855 17.1923 16.5508C16.3692 16.1521 15.5206 15.8467 14.6464 15.6345C13.7722 15.4223 12.8901 15.3162 12 15.3162C11.1099 15.3162 10.2278 15.4223 9.3536 15.6345C8.4794 15.8467 7.63077 16.1521 6.8077 16.5508C6.55513 16.6855 6.35737 16.8502 6.21442 17.0451C6.07147 17.24 6 17.4483 6 17.6701V18.3162ZM12 11.0855C12.55 11.0855 13.0208 10.8896 13.4125 10.498C13.8042 10.1063 14 9.63548 14 9.08548C14 8.53548 13.8042 8.06464 13.4125 7.67298C13.0208 7.28131 12.55 7.08548 12 7.08548C11.45 7.08548 10.9792 7.28131 10.5875 7.67298C10.1958 8.06464 10 8.53548 10 9.08548C10 9.63548 10.1958 10.1063 10.5875 10.498C10.9792 10.8896 11.45 11.0855 12 11.0855Z" fill="currentColor"/>
              </svg>