<svg width="16" height="16" viewBox="0 0 16 16" fill="none" xmlns="http://www.w3.org/2000/svg">
<path id="Vector" d="M7.75 0.111816C12 0.111816 15.5 3.61182 15.5 7.86182C15.5 12.1431 12 15.6118 7.75 15.6118C3.46875 15.6118 0 12.1431 0 7.86182C0 3.61182 3.46875 0.111816 7.75 0.111816ZM7.75 14.1118C11.1875 14.1118 14 11.3306 14 7.86182C14 4.42432 11.1875 1.61182 7.75 1.61182C4.28125 1.61182 1.5 4.42432 1.5 7.86182C1.5 11.3306 4.28125 14.1118 7.75 14.1118ZM11.0938 10.9556C10.7812 11.2681 9.65625 12.2681 7.84375 12.2681C5.25 12.2681 3.4375 10.3306 3.4375 7.83057C3.4375 5.36182 5.34375 3.48682 7.8125 3.48682C9.5625 3.48682 10.5938 4.29932 10.875 4.58057C10.9375 4.64307 11 4.73682 11 4.83057C11 4.92432 10.9688 4.98682 10.9375 5.04932L10.3438 5.92432C10.25 6.11182 9.96875 6.14307 9.8125 6.01807C9.53125 5.79932 8.8125 5.29932 7.875 5.29932C6.375 5.29932 5.4375 6.42432 5.4375 7.83057C5.4375 9.11182 6.28125 10.4243 7.90625 10.4243C8.90625 10.4243 9.65625 9.83057 9.9375 9.58057C10.125 9.42432 10.375 9.45557 10.5 9.64307L11.125 10.4868C11.1562 10.5493 11.1875 10.6118 11.1875 10.7056C11.1875 10.7993 11.1562 10.8931 11.0938 10.9556Z" fill="white"/>
</svg>
